<mxfile host="Electron" modified="2023-10-21T15:30:08.003Z" agent="Mozilla/5.0 (Windows NT 10.0; Win64; x64) AppleWebKit/537.36 (KHTML, like Gecko) draw.io/22.0.2 Chrome/114.0.5735.289 Electron/25.8.4 Safari/537.36" etag="Pn61GX4tpD7MgEJGjzLl" version="22.0.2" type="device">
  <diagram name="Page-1" id="2YBvvXClWsGukQMizWep">
    <mxGraphModel dx="816" dy="676" grid="1" gridSize="10" guides="1" tooltips="1" connect="1" arrows="1" fold="1" page="1" pageScale="1" pageWidth="850" pageHeight="1100" math="0" shadow="0">
      <root>
        <mxCell id="0" />
        <mxCell id="1" parent="0" />
        <mxCell id="SB4TEwUQo2XcKW8rI5Qr-15" value="" style="rounded=0;whiteSpace=wrap;html=1;" parent="1" vertex="1">
          <mxGeometry x="335" y="180" width="10" height="490" as="geometry" />
        </mxCell>
        <mxCell id="SB4TEwUQo2XcKW8rI5Qr-1" value="User" style="shape=umlActor;verticalLabelPosition=bottom;verticalAlign=top;html=1;outlineConnect=0;" parent="1" vertex="1">
          <mxGeometry x="70" y="90" width="30" height="60" as="geometry" />
        </mxCell>
        <mxCell id="SB4TEwUQo2XcKW8rI5Qr-2" value=":System" style="rounded=0;whiteSpace=wrap;html=1;" parent="1" vertex="1">
          <mxGeometry x="280" y="110" width="120" height="60" as="geometry" />
        </mxCell>
        <mxCell id="SB4TEwUQo2XcKW8rI5Qr-3" value=":Database" style="rounded=0;whiteSpace=wrap;html=1;" parent="1" vertex="1">
          <mxGeometry x="559" y="110" width="120" height="60" as="geometry" />
        </mxCell>
        <mxCell id="SB4TEwUQo2XcKW8rI5Qr-4" value="" style="endArrow=none;dashed=1;html=1;rounded=0;entryX=0.5;entryY=1;entryDx=0;entryDy=0;" parent="1" source="SB4TEwUQo2XcKW8rI5Qr-40" target="SB4TEwUQo2XcKW8rI5Qr-3" edge="1">
          <mxGeometry width="50" height="50" relative="1" as="geometry">
            <mxPoint x="620" y="480" as="sourcePoint" />
            <mxPoint x="640" y="230" as="targetPoint" />
          </mxGeometry>
        </mxCell>
        <mxCell id="SB4TEwUQo2XcKW8rI5Qr-5" value="" style="endArrow=none;dashed=1;html=1;rounded=0;" parent="1" source="SB4TEwUQo2XcKW8rI5Qr-15" target="SB4TEwUQo2XcKW8rI5Qr-2" edge="1">
          <mxGeometry width="50" height="50" relative="1" as="geometry">
            <mxPoint x="339.52" y="581.5237862723214" as="sourcePoint" />
            <mxPoint x="339.52" y="170" as="targetPoint" />
          </mxGeometry>
        </mxCell>
        <mxCell id="SB4TEwUQo2XcKW8rI5Qr-6" value="" style="endArrow=none;dashed=1;html=1;rounded=0;" parent="1" source="SB4TEwUQo2XcKW8rI5Qr-35" edge="1">
          <mxGeometry width="50" height="50" relative="1" as="geometry">
            <mxPoint x="85" y="480" as="sourcePoint" />
            <mxPoint x="85" y="170" as="targetPoint" />
          </mxGeometry>
        </mxCell>
        <mxCell id="SB4TEwUQo2XcKW8rI5Qr-7" value="" style="rounded=0;whiteSpace=wrap;html=1;" parent="1" vertex="1">
          <mxGeometry x="80" y="180" width="10" height="80" as="geometry" />
        </mxCell>
        <mxCell id="SB4TEwUQo2XcKW8rI5Qr-8" value="" style="endArrow=classic;html=1;rounded=0;exitX=1;exitY=0.25;exitDx=0;exitDy=0;entryX=-0.057;entryY=0.046;entryDx=0;entryDy=0;entryPerimeter=0;" parent="1" edge="1">
          <mxGeometry width="50" height="50" relative="1" as="geometry">
            <mxPoint x="90" y="204.5" as="sourcePoint" />
            <mxPoint x="334.42999999999995" y="203.96000000000004" as="targetPoint" />
          </mxGeometry>
        </mxCell>
        <mxCell id="SB4TEwUQo2XcKW8rI5Qr-9" value="Initiate Payment Request" style="text;html=1;align=center;verticalAlign=middle;resizable=0;points=[];autosize=1;strokeColor=none;fillColor=none;" parent="1" vertex="1">
          <mxGeometry x="120" y="179" width="160" height="30" as="geometry" />
        </mxCell>
        <mxCell id="SB4TEwUQo2XcKW8rI5Qr-13" value="Alt" style="shape=umlFrame;whiteSpace=wrap;html=1;pointerEvents=0;" parent="1" vertex="1">
          <mxGeometry x="10" y="270" width="690" height="130" as="geometry" />
        </mxCell>
        <mxCell id="SB4TEwUQo2XcKW8rI5Qr-14" value="" style="endArrow=none;dashed=1;html=1;rounded=0;exitX=-0.001;exitY=0.537;exitDx=0;exitDy=0;exitPerimeter=0;" parent="1" edge="1">
          <mxGeometry width="50" height="50" relative="1" as="geometry">
            <mxPoint x="9.309999999999945" y="333.80999999999995" as="sourcePoint" />
            <mxPoint x="700" y="334" as="targetPoint" />
          </mxGeometry>
        </mxCell>
        <mxCell id="SB4TEwUQo2XcKW8rI5Qr-16" value="" style="endArrow=none;dashed=1;html=1;rounded=0;" parent="1" source="SB4TEwUQo2XcKW8rI5Qr-36" target="SB4TEwUQo2XcKW8rI5Qr-15" edge="1">
          <mxGeometry width="50" height="50" relative="1" as="geometry">
            <mxPoint x="340" y="480" as="sourcePoint" />
            <mxPoint x="340" y="170" as="targetPoint" />
          </mxGeometry>
        </mxCell>
        <mxCell id="SB4TEwUQo2XcKW8rI5Qr-24" value="Cart Not &lt;br&gt;Empty" style="text;html=1;align=center;verticalAlign=middle;resizable=0;points=[];autosize=1;strokeColor=none;fillColor=none;" parent="1" vertex="1">
          <mxGeometry x="9" y="298" width="70" height="40" as="geometry" />
        </mxCell>
        <mxCell id="SB4TEwUQo2XcKW8rI5Qr-26" value="Cart Empty" style="text;html=1;align=center;verticalAlign=middle;resizable=0;points=[];autosize=1;strokeColor=none;fillColor=none;" parent="1" vertex="1">
          <mxGeometry x="5" y="355" width="80" height="30" as="geometry" />
        </mxCell>
        <mxCell id="SB4TEwUQo2XcKW8rI5Qr-30" value="" style="endArrow=open;endSize=12;dashed=1;html=1;rounded=0;exitX=0.949;exitY=0.122;exitDx=0;exitDy=0;exitPerimeter=0;entryX=1.06;entryY=0.101;entryDx=0;entryDy=0;entryPerimeter=0;" parent="1" edge="1">
          <mxGeometry width="160" relative="1" as="geometry">
            <mxPoint x="332" y="375" as="sourcePoint" />
            <mxPoint x="94" y="374" as="targetPoint" />
          </mxGeometry>
        </mxCell>
        <mxCell id="SB4TEwUQo2XcKW8rI5Qr-31" value="notify User" style="text;whiteSpace=wrap;html=1;" parent="1" vertex="1">
          <mxGeometry x="203" y="350" width="90" height="40" as="geometry" />
        </mxCell>
        <mxCell id="SB4TEwUQo2XcKW8rI5Qr-33" value="" style="endArrow=classic;html=1;rounded=0;exitX=0.988;exitY=0.221;exitDx=0;exitDy=0;exitPerimeter=0;" parent="1" edge="1">
          <mxGeometry width="50" height="50" relative="1" as="geometry">
            <mxPoint x="343.8799999999999" y="230.46000000000004" as="sourcePoint" />
            <mxPoint x="610" y="230" as="targetPoint" />
          </mxGeometry>
        </mxCell>
        <mxCell id="SB4TEwUQo2XcKW8rI5Qr-34" value="Validate Payment Request" style="text;html=1;align=center;verticalAlign=middle;resizable=0;points=[];autosize=1;strokeColor=none;fillColor=none;" parent="1" vertex="1">
          <mxGeometry x="388" y="205" width="160" height="30" as="geometry" />
        </mxCell>
        <mxCell id="SB4TEwUQo2XcKW8rI5Qr-35" value="" style="shape=umlDestroy;whiteSpace=wrap;html=1;strokeWidth=3;targetShapes=umlLifeline;" parent="1" vertex="1">
          <mxGeometry x="70.99" y="700" width="30" height="30" as="geometry" />
        </mxCell>
        <mxCell id="SB4TEwUQo2XcKW8rI5Qr-36" value="" style="shape=umlDestroy;whiteSpace=wrap;html=1;strokeWidth=3;targetShapes=umlLifeline;" parent="1" vertex="1">
          <mxGeometry x="325" y="700" width="30" height="30" as="geometry" />
        </mxCell>
        <mxCell id="SB4TEwUQo2XcKW8rI5Qr-37" value="" style="shape=umlDestroy;whiteSpace=wrap;html=1;strokeWidth=3;targetShapes=umlLifeline;" parent="1" vertex="1">
          <mxGeometry x="604" y="700" width="30" height="30" as="geometry" />
        </mxCell>
        <mxCell id="SB4TEwUQo2XcKW8rI5Qr-41" value="" style="endArrow=none;dashed=1;html=1;rounded=0;entryX=1;entryY=0.5;entryDx=0;entryDy=0;" parent="1" source="SB4TEwUQo2XcKW8rI5Qr-37" target="SB4TEwUQo2XcKW8rI5Qr-40" edge="1">
          <mxGeometry width="50" height="50" relative="1" as="geometry">
            <mxPoint x="620" y="465" as="sourcePoint" />
            <mxPoint x="619" y="170" as="targetPoint" />
          </mxGeometry>
        </mxCell>
        <mxCell id="SB4TEwUQo2XcKW8rI5Qr-40" value="" style="rounded=0;whiteSpace=wrap;html=1;rotation=90;" parent="1" vertex="1">
          <mxGeometry x="596.07" y="233.69" width="45.87" height="10" as="geometry" />
        </mxCell>
        <mxCell id="SB4TEwUQo2XcKW8rI5Qr-53" value="" style="endArrow=classic;html=1;rounded=0;entryX=-0.057;entryY=0.046;entryDx=0;entryDy=0;entryPerimeter=0;exitX=1.111;exitY=0.886;exitDx=0;exitDy=0;exitPerimeter=0;" parent="1" edge="1">
          <mxGeometry width="50" height="50" relative="1" as="geometry">
            <mxPoint x="92.11000000000001" y="306.88" as="sourcePoint" />
            <mxPoint x="333.42999999999995" y="307.96000000000004" as="targetPoint" />
          </mxGeometry>
        </mxCell>
        <mxCell id="SB4TEwUQo2XcKW8rI5Qr-56" value="" style="rounded=0;whiteSpace=wrap;html=1;rotation=90;" parent="1" vertex="1">
          <mxGeometry x="64.13" y="297.35" width="43.74" height="10" as="geometry" />
        </mxCell>
        <mxCell id="jJ2E1BAoAZqyhSgXUfaf-1" value="" style="rounded=0;whiteSpace=wrap;html=1;" vertex="1" parent="1">
          <mxGeometry x="81" y="357" width="10" height="33" as="geometry" />
        </mxCell>
        <mxCell id="jJ2E1BAoAZqyhSgXUfaf-2" value="Select Payment Method" style="text;html=1;align=center;verticalAlign=middle;resizable=0;points=[];autosize=1;strokeColor=none;fillColor=none;" vertex="1" parent="1">
          <mxGeometry x="140" y="283" width="150" height="30" as="geometry" />
        </mxCell>
        <mxCell id="jJ2E1BAoAZqyhSgXUfaf-3" value="" style="endArrow=classic;html=1;rounded=0;exitX=0.988;exitY=0.221;exitDx=0;exitDy=0;exitPerimeter=0;" edge="1" parent="1">
          <mxGeometry width="50" height="50" relative="1" as="geometry">
            <mxPoint x="349.8799999999999" y="319.46000000000004" as="sourcePoint" />
            <mxPoint x="616" y="319" as="targetPoint" />
          </mxGeometry>
        </mxCell>
        <mxCell id="jJ2E1BAoAZqyhSgXUfaf-4" value="Update Cart" style="text;html=1;align=center;verticalAlign=middle;resizable=0;points=[];autosize=1;strokeColor=none;fillColor=none;" vertex="1" parent="1">
          <mxGeometry x="433" y="293" width="90" height="30" as="geometry" />
        </mxCell>
        <mxCell id="jJ2E1BAoAZqyhSgXUfaf-5" value="" style="rounded=0;whiteSpace=wrap;html=1;rotation=90;" vertex="1" parent="1">
          <mxGeometry x="597.07" y="300.69" width="45.87" height="10" as="geometry" />
        </mxCell>
        <mxCell id="jJ2E1BAoAZqyhSgXUfaf-6" value="Alt" style="shape=umlFrame;whiteSpace=wrap;html=1;pointerEvents=0;" vertex="1" parent="1">
          <mxGeometry x="10" y="409" width="690" height="191" as="geometry" />
        </mxCell>
        <mxCell id="jJ2E1BAoAZqyhSgXUfaf-7" value="" style="endArrow=none;dashed=1;html=1;rounded=0;exitX=-0.001;exitY=0.537;exitDx=0;exitDy=0;exitPerimeter=0;" edge="1" parent="1">
          <mxGeometry width="50" height="50" relative="1" as="geometry">
            <mxPoint x="9.309999999999945" y="525.81" as="sourcePoint" />
            <mxPoint x="700" y="526" as="targetPoint" />
          </mxGeometry>
        </mxCell>
        <mxCell id="jJ2E1BAoAZqyhSgXUfaf-8" value="Card &lt;br&gt;payment" style="text;html=1;align=center;verticalAlign=middle;resizable=0;points=[];autosize=1;strokeColor=none;fillColor=none;" vertex="1" parent="1">
          <mxGeometry x="9" y="439" width="70" height="40" as="geometry" />
        </mxCell>
        <mxCell id="jJ2E1BAoAZqyhSgXUfaf-9" value="Cash On&lt;br&gt;Delivery" style="text;html=1;align=center;verticalAlign=middle;resizable=0;points=[];autosize=1;strokeColor=none;fillColor=none;" vertex="1" parent="1">
          <mxGeometry x="10" y="533" width="70" height="40" as="geometry" />
        </mxCell>
        <mxCell id="jJ2E1BAoAZqyhSgXUfaf-11" value="Confirm cash On Delivery" style="text;whiteSpace=wrap;html=1;" vertex="1" parent="1">
          <mxGeometry x="140" y="533" width="180" height="40" as="geometry" />
        </mxCell>
        <mxCell id="jJ2E1BAoAZqyhSgXUfaf-13" value="" style="endArrow=classic;html=1;rounded=0;entryX=-0.057;entryY=0.046;entryDx=0;entryDy=0;entryPerimeter=0;exitX=0.613;exitY=-0.874;exitDx=0;exitDy=0;exitPerimeter=0;" edge="1" parent="1">
          <mxGeometry width="50" height="50" relative="1" as="geometry">
            <mxPoint x="96.74000000000001" y="432.24830999999995" as="sourcePoint" />
            <mxPoint x="332.42999999999995" y="431.96000000000004" as="targetPoint" />
          </mxGeometry>
        </mxCell>
        <mxCell id="jJ2E1BAoAZqyhSgXUfaf-14" value="" style="rounded=0;whiteSpace=wrap;html=1;rotation=90;" vertex="1" parent="1">
          <mxGeometry x="38.06" y="462.41" width="95.87" height="10" as="geometry" />
        </mxCell>
        <mxCell id="jJ2E1BAoAZqyhSgXUfaf-15" value="" style="rounded=0;whiteSpace=wrap;html=1;" vertex="1" parent="1">
          <mxGeometry x="81" y="540" width="10" height="33" as="geometry" />
        </mxCell>
        <mxCell id="jJ2E1BAoAZqyhSgXUfaf-16" value="Provide Card Information" style="text;html=1;align=center;verticalAlign=middle;resizable=0;points=[];autosize=1;strokeColor=none;fillColor=none;" vertex="1" parent="1">
          <mxGeometry x="138" y="407" width="160" height="30" as="geometry" />
        </mxCell>
        <mxCell id="jJ2E1BAoAZqyhSgXUfaf-17" value="" style="endArrow=classic;html=1;rounded=0;exitX=0.988;exitY=0.221;exitDx=0;exitDy=0;exitPerimeter=0;" edge="1" parent="1">
          <mxGeometry width="50" height="50" relative="1" as="geometry">
            <mxPoint x="349.8799999999999" y="450.46000000000004" as="sourcePoint" />
            <mxPoint x="616" y="450" as="targetPoint" />
          </mxGeometry>
        </mxCell>
        <mxCell id="jJ2E1BAoAZqyhSgXUfaf-18" value="Process Card Information" style="text;html=1;align=center;verticalAlign=middle;resizable=0;points=[];autosize=1;strokeColor=none;fillColor=none;" vertex="1" parent="1">
          <mxGeometry x="398" y="424" width="160" height="30" as="geometry" />
        </mxCell>
        <mxCell id="jJ2E1BAoAZqyhSgXUfaf-19" value="" style="rounded=0;whiteSpace=wrap;html=1;rotation=90;" vertex="1" parent="1">
          <mxGeometry x="573.4" y="463.36" width="93.22" height="10" as="geometry" />
        </mxCell>
        <mxCell id="jJ2E1BAoAZqyhSgXUfaf-48" value="" style="endArrow=open;endSize=12;dashed=1;html=1;rounded=0;exitX=0.949;exitY=0.122;exitDx=0;exitDy=0;exitPerimeter=0;" edge="1" parent="1">
          <mxGeometry width="160" relative="1" as="geometry">
            <mxPoint x="613" y="256" as="sourcePoint" />
            <mxPoint x="345" y="255" as="targetPoint" />
          </mxGeometry>
        </mxCell>
        <mxCell id="jJ2E1BAoAZqyhSgXUfaf-49" value="Return Payment Request Status" style="text;html=1;align=center;verticalAlign=middle;resizable=0;points=[];autosize=1;strokeColor=none;fillColor=none;" vertex="1" parent="1">
          <mxGeometry x="367" y="229" width="200" height="30" as="geometry" />
        </mxCell>
        <mxCell id="jJ2E1BAoAZqyhSgXUfaf-50" value="" style="endArrow=open;endSize=12;dashed=1;html=1;rounded=0;exitX=0.949;exitY=0.122;exitDx=0;exitDy=0;exitPerimeter=0;entryX=1.06;entryY=0.101;entryDx=0;entryDy=0;entryPerimeter=0;" edge="1" parent="1">
          <mxGeometry width="160" relative="1" as="geometry">
            <mxPoint x="332" y="461" as="sourcePoint" />
            <mxPoint x="94" y="460" as="targetPoint" />
          </mxGeometry>
        </mxCell>
        <mxCell id="jJ2E1BAoAZqyhSgXUfaf-51" value="Generate OTP" style="text;html=1;align=center;verticalAlign=middle;resizable=0;points=[];autosize=1;strokeColor=none;fillColor=none;" vertex="1" parent="1">
          <mxGeometry x="166" y="436" width="100" height="30" as="geometry" />
        </mxCell>
        <mxCell id="jJ2E1BAoAZqyhSgXUfaf-52" value="" style="endArrow=classic;html=1;rounded=0;entryX=-0.057;entryY=0.046;entryDx=0;entryDy=0;entryPerimeter=0;exitX=0.613;exitY=-0.874;exitDx=0;exitDy=0;exitPerimeter=0;" edge="1" parent="1">
          <mxGeometry width="50" height="50" relative="1" as="geometry">
            <mxPoint x="96.74000000000001" y="488.24830999999995" as="sourcePoint" />
            <mxPoint x="332.42999999999995" y="487.96000000000004" as="targetPoint" />
          </mxGeometry>
        </mxCell>
        <mxCell id="jJ2E1BAoAZqyhSgXUfaf-53" value="Enter OTP" style="text;html=1;align=center;verticalAlign=middle;resizable=0;points=[];autosize=1;strokeColor=none;fillColor=none;" vertex="1" parent="1">
          <mxGeometry x="178" y="463" width="80" height="30" as="geometry" />
        </mxCell>
        <mxCell id="jJ2E1BAoAZqyhSgXUfaf-54" value="" style="endArrow=classic;html=1;rounded=0;exitX=0.988;exitY=0.221;exitDx=0;exitDy=0;exitPerimeter=0;" edge="1" parent="1">
          <mxGeometry width="50" height="50" relative="1" as="geometry">
            <mxPoint x="347.8799999999999" y="503.46000000000004" as="sourcePoint" />
            <mxPoint x="614" y="503" as="targetPoint" />
          </mxGeometry>
        </mxCell>
        <mxCell id="jJ2E1BAoAZqyhSgXUfaf-55" value="Process Card Payment" style="text;html=1;align=center;verticalAlign=middle;resizable=0;points=[];autosize=1;strokeColor=none;fillColor=none;" vertex="1" parent="1">
          <mxGeometry x="401" y="477" width="150" height="30" as="geometry" />
        </mxCell>
        <mxCell id="jJ2E1BAoAZqyhSgXUfaf-56" value="" style="endArrow=classic;html=1;rounded=0;entryX=-0.057;entryY=0.046;entryDx=0;entryDy=0;entryPerimeter=0;exitX=0.613;exitY=-0.874;exitDx=0;exitDy=0;exitPerimeter=0;" edge="1" parent="1">
          <mxGeometry width="50" height="50" relative="1" as="geometry">
            <mxPoint x="96.74000000000001" y="559.24831" as="sourcePoint" />
            <mxPoint x="332.42999999999995" y="558.96" as="targetPoint" />
          </mxGeometry>
        </mxCell>
        <mxCell id="jJ2E1BAoAZqyhSgXUfaf-58" value="" style="endArrow=open;endSize=12;dashed=1;html=1;rounded=0;exitX=0.949;exitY=0.122;exitDx=0;exitDy=0;exitPerimeter=0;entryX=1.06;entryY=0.101;entryDx=0;entryDy=0;entryPerimeter=0;" edge="1" parent="1">
          <mxGeometry width="160" relative="1" as="geometry">
            <mxPoint x="329" y="631" as="sourcePoint" />
            <mxPoint x="91" y="630" as="targetPoint" />
          </mxGeometry>
        </mxCell>
        <mxCell id="jJ2E1BAoAZqyhSgXUfaf-59" value="Payment Confirmation" style="text;html=1;align=center;verticalAlign=middle;resizable=0;points=[];autosize=1;strokeColor=none;fillColor=none;" vertex="1" parent="1">
          <mxGeometry x="143" y="606" width="140" height="30" as="geometry" />
        </mxCell>
        <mxCell id="jJ2E1BAoAZqyhSgXUfaf-60" value="" style="rounded=0;whiteSpace=wrap;html=1;" vertex="1" parent="1">
          <mxGeometry x="81" y="613" width="10" height="33" as="geometry" />
        </mxCell>
      </root>
    </mxGraphModel>
  </diagram>
</mxfile>
